<?xml version="1.0" encoding="UTF-8" standalone="no"?>
<!DOCTYPE svg PUBLIC "-//W3C//DTD SVG 1.1//EN" "http://www.w3.org/Graphics/SVG/1.1/DTD/svg11.dtd">
<svg width="100%" height="100%" viewBox="0 0 490 688" version="1.1" xmlns="http://www.w3.org/2000/svg" xmlns:xlink="http://www.w3.org/1999/xlink" xml:space="preserve" xmlns:serif="http://www.serif.com/" style="fill-rule:evenodd;clip-rule:evenodd;stroke-linecap:round;stroke-linejoin:round;">
    <g id="Rellenar" transform="matrix(4.54546,0,0,4.54546,3929.41,-10765.4)">
        <g id="STROKE_1e9ecac2-cf0d-46f1-8a6f-97720efdcdcb" transform="matrix(1,0,0,0.985812,-1.22176,35.5397)">
            <path d="M-821.654,2517.4C-845.426,2512.46 -862.291,2493.35 -862.546,2472.64L-862.625,2470.32C-861.926,2430.7 -838.042,2440.45 -809.479,2369.03L-809.477,2369.03L-809.471,2369.03C-827.703,2432.95 -840.282,2429.08 -843.986,2467.57L-844.117,2469.51C-845.928,2494.49 -836.777,2515.72 -821.654,2517.4Z" style="fill:rgb(116,224,235);fill-rule:nonzero;"/>
        </g>
        <path id="STROKE_ff1d5816-25f5-4e15-b90b-dcc8edb48a7a" d="M-823.475,2517.12C-838.598,2515.47 -847.15,2494.64 -845.339,2470.01L-845.208,2468.1C-841.503,2430.16 -828.924,2433.97 -810.693,2370.96L-810.699,2370.96L-810.679,2518.46C-810.679,2518.46 -815.557,2518.24 -817.69,2518.02C-819.631,2517.82 -823.475,2517.12 -823.475,2517.12Z" style="fill:rgb(77,216,230);fill-rule:nonzero;"/>
        <g id="STROKE_ff1d5816-25f5-4e15-b90b-dcc8edb48a7a1" serif:id="STROKE_ff1d5816-25f5-4e15-b90b-dcc8edb48a7a" transform="matrix(-1,0,0,1,-1621.47,0)">
            <path d="M-823.475,2517.12C-838.598,2515.47 -847.15,2494.64 -845.339,2470.01L-845.208,2468.1C-841.503,2430.16 -828.924,2433.97 -810.693,2370.96L-810.699,2370.96L-810.679,2518.46C-810.679,2518.46 -815.557,2518.24 -817.69,2518.02C-819.631,2517.82 -823.475,2517.12 -823.475,2517.12Z" style="fill:rgb(31,200,217);fill-rule:nonzero;"/>
        </g>
        <g id="STROKE_1e9ecac2-cf0d-46f1-8a6f-97720efdcdcb1" serif:id="STROKE_1e9ecac2-cf0d-46f1-8a6f-97720efdcdcb" transform="matrix(-1,0,0,0.985812,-1620.11,35.5397)">
            <path d="M-821.654,2517.4C-845.426,2512.46 -862.291,2493.35 -862.546,2472.64L-862.625,2470.32C-861.926,2430.7 -838.042,2440.45 -809.479,2369.03L-809.477,2369.03L-809.471,2369.03C-827.703,2432.95 -840.282,2429.08 -843.986,2467.57L-844.117,2469.51C-845.928,2494.49 -836.777,2515.72 -821.654,2517.4Z" style="fill:rgb(28,187,203);fill-rule:nonzero;"/>
        </g>
        <path id="STROKE_9dc1eb20-a42f-4d4a-a60a-0dadb8318c16" d="M-817.957,2404.99C-824.03,2405.8 -822.754,2415.72 -832.564,2427.7C-834.341,2429.87 -860.381,2455.24 -842.381,2451.45C-821.766,2447.12 -812.846,2410.65 -817.285,2405.56L-817.635,2405.14" style="fill:rgb(243,243,236);fill-rule:nonzero;stroke:rgb(243,243,236);stroke-width:0.5px;"/>
        <path id="STROKE_115cdaf5-e57b-4ca5-b5b2-943d9880bb3c" d="M-817.956,2404.99C-825.082,2414.66 -825.024,2418.16 -829.223,2424.46C-830.554,2426.46 -832.368,2428.91 -834.923,2431.55C-842.009,2438.88 -842.632,2444.91 -839.449,2445.31C-839.197,2445.34 -819.894,2442.8 -817.635,2405.14C-817.742,2405.09 -817.849,2405.04 -817.956,2404.99Z" style="fill:white;fill-rule:nonzero;stroke:white;stroke-width:0.5px;"/>
        <path id="STROKE_ce47a7ab-3111-424d-8e02-af6915d89835" d="M-846.691,2465.49C-847.236,2465.41 -847.9,2465.53 -848.4,2465.66C-861.502,2468.96 -859.035,2490.3 -850.229,2494.26C-838.504,2499.53 -838.476,2472.96 -846.301,2465.69C-846.301,2465.69 -846.575,2465.5 -846.691,2465.49Z" style="fill:rgb(243,243,236);fill-rule:nonzero;stroke:rgb(243,243,236);stroke-width:0.5px;"/>
        <path id="STROKE_ce75192d-22a3-4c28-836d-9264aa016d29" d="M-847.936,2466.43C-849.872,2466.48 -858.386,2476.68 -854.448,2485.52C-852.083,2490.83 -848.18,2489.39 -846.899,2487.41C-842.532,2480.66 -846.464,2466.72 -847.936,2466.43Z" style="fill:white;fill-rule:nonzero;stroke:white;stroke-width:0.5px;"/>
    </g>
    <g transform="matrix(1,0,0,1,-100.959,-8056.26)">
        <g id="STROKE_8e7d10f5-ccd7-4a00-8b02-c6de90b26115" transform="matrix(4.54546,0,0,4.54546,4030.37,-2709.14)">
            <path d="M-758.655,2481.75C-776.993,2496.34 -844.096,2495.81 -862.669,2481.54" style="fill:none;fill-rule:nonzero;stroke:rgb(0,135,142);stroke-width:1.04px;"/>
        </g>
        <g id="STROKE_cf7513db-9c61-4ffa-b1cf-c30002ebbe23" transform="matrix(4.54546,0,0,4.54546,4030.37,-2709.14)">
            <path d="M-861.276,2454.65C-841.593,2462.47 -778.851,2463.19 -759.548,2455.66" style="fill:none;fill-rule:nonzero;stroke:rgb(0,135,142);stroke-width:1.04px;"/>
        </g>
        <g id="STROKE_cc9c7022-b2f7-49c1-a3f0-b19eacd9d544" transform="matrix(4.54546,0,0,4.54546,4030.37,-2709.14)">
            <path d="M-842.963,2427.25C-810.681,2422.69 -778.694,2426.9 -778.694,2426.9" style="fill:none;fill-rule:nonzero;stroke:rgb(0,135,142);stroke-width:1.04px;"/>
        </g>
        <g id="STROKE_1fd8eba5-3783-4005-aa47-e97e6276108e" transform="matrix(4.54546,0,0,4.54546,4030.37,-2709.14)">
            <path d="M-825.514,2402.44C-823.294,2401.85 -801.17,2401.28 -796.046,2402.22" style="fill:none;fill-rule:nonzero;stroke:rgb(0,135,142);stroke-width:1.04px;"/>
        </g>
        <g id="STROKE_1e9ecac2-cf0d-46f1-8a6f-97720efdcdcb2" serif:id="STROKE_1e9ecac2-cf0d-46f1-8a6f-97720efdcdcb" transform="matrix(4.54546,0,0,4.48097,4024.82,-2547.6)">
            <path d="M-796.689,2517.3C-781.566,2515.62 -773.014,2494.49 -774.825,2469.51L-774.956,2467.57C-778.66,2429.08 -791.239,2432.95 -809.471,2369.03C-827.703,2432.95 -840.282,2429.08 -843.986,2467.57L-844.117,2469.51C-845.928,2494.49 -837.376,2515.62 -822.253,2517.3" style="fill:none;fill-rule:nonzero;stroke:rgb(0,135,142);stroke-width:1.04px;"/>
        </g>
        <g id="STROKE_16d3cde1-eabd-4869-a2b8-40d4cd7650a9" transform="matrix(4.54546,0,0,4.54546,4030.37,-2709.14)">
            <path d="M-810.701,2370.96C-839.264,2441.37 -863.147,2431.75 -863.847,2470.81L-863.768,2473.1C-863.467,2497.16 -839.939,2519.05 -809.455,2518.45C-779.511,2517.86 -757.238,2495.83 -757.554,2472.1L-757.553,2470.81C-758.252,2431.8 -782.118,2441.41 -810.699,2370.96" style="fill:none;fill-rule:nonzero;stroke:rgb(0,135,142);stroke-width:1.04px;"/>
        </g>
        <g id="STROKE_ff1d5816-25f5-4e15-b90b-dcc8edb48a7a2" serif:id="STROKE_ff1d5816-25f5-4e15-b90b-dcc8edb48a7a" transform="matrix(4.54546,0,0,4.54546,4030.37,-2709.14)">
            <path d="M-810.699,2370.96L-810.679,2518.46" style="fill:none;fill-rule:nonzero;stroke:rgb(0,135,142);stroke-width:1.04px;"/>
        </g>
    </g>
</svg>
